HIERARCHY
ROOT Hips
{
  OFFSET 196.326 95.9168 97.7182
  CHANNELS 6 Xposition Yposition Zposition Zrotation Xrotation Yrotation
  JOINT LeftUpLeg
  {
    OFFSET 8.64259 1.95398 -2.38835
    CHANNELS 3 Zrotation Xrotation Yrotation
    JOINT LeftLeg
    {
      OFFSET 43.7702 0 0
      CHANNELS 3 Zrotation Xrotation Yrotation
      JOINT LeftFoot
      {
        OFFSET 40.6238 0 0
        CHANNELS 3 Zrotation Xrotation Yrotation
        JOINT LeftToeBase
        {
          OFFSET 12.7242 0 0
          CHANNELS 3 Zrotation Xrotation Yrotation
          End Site
          {
            OFFSET 0 0 0
          }
        }
      }
    }
  }
  JOINT RightUpLeg
  {
    OFFSET -8.2249 1.95398 -2.59336
    CHANNELS 3 Zrotation Xrotation Yrotation
    JOINT RightLeg
    {
      OFFSET 43.5653 0 0
      CHANNELS 3 Zrotation Xrotation Yrotation
      JOINT RightFoot
      {
        OFFSET 40.6238 0 0
        CHANNELS 3 Zrotation Xrotation Yrotation
        JOINT RightToeBase
        {
          OFFSET 12.7242 0 0
          CHANNELS 3 Zrotation Xrotation Yrotation
          End Site
          {
            OFFSET 0 0 0
          }
        }
      }
    }
  }
  JOINT Spine
  {
    OFFSET 0.165834 0.87714 6.61349
    CHANNELS 3 Zrotation Xrotation Yrotation
    JOINT Spine1
    {
      OFFSET 7.38963 1.71661e-005 0
      CHANNELS 3 Zrotation Xrotation Yrotation
      JOINT Spine2
      {
        OFFSET 11.9445 1.14441e-005 0
        CHANNELS 3 Zrotation Xrotation Yrotation
        JOINT Spine3
        {
          OFFSET 14.7254 4.19617e-005 0
          CHANNELS 3 Zrotation Xrotation Yrotation
          JOINT Spine4
          {
            OFFSET 10.9679 0 0
            CHANNELS 3 Zrotation Xrotation Yrotation
            JOINT RightShoulder
            {
              OFFSET 2.46616 -1.6653 3.69651
              CHANNELS 3 Zrotation Xrotation Yrotation
              JOINT RightArm
              {
                OFFSET 13.0012 0 0
                CHANNELS 3 Zrotation Xrotation Yrotation
                JOINT RightForeArm
                {
                  OFFSET 28.7848 1.52588e-005 0
                  CHANNELS 3 Zrotation Xrotation Yrotation
                  JOINT RightHand
                  {
                    OFFSET 26.5688 1.52588e-005 0
                    CHANNELS 3 Zrotation Xrotation Yrotation
                    End Site
                    {
                      OFFSET 0 0 0
                    }
                  }
                }
              }
            }
            JOINT LeftShoulder
            {
              OFFSET 2.38034 -1.29275 -3.75231
              CHANNELS 3 Zrotation Xrotation Yrotation
              JOINT LeftArm
              {
                OFFSET 16.3182 6.10351e-005 0
                CHANNELS 3 Zrotation Xrotation Yrotation
                JOINT LeftForeArm
                {
                  OFFSET 27.0901 0 0
                  CHANNELS 3 Zrotation Xrotation Yrotation
                  JOINT LeftHand
                  {
                    OFFSET 24.5451 1.52588e-005 0
                    CHANNELS 3 Zrotation Xrotation Yrotation
                    End Site
                    {
                      OFFSET 0 0 0
                    }
                  }
                }
              }
            }
            JOINT Neck
            {
              OFFSET 5.0226 -0.0266342 0
              CHANNELS 3 Zrotation Xrotation Yrotation
              JOINT Head
              {
                OFFSET 6.69363 2.86102e-005 0
                CHANNELS 3 Zrotation Xrotation Yrotation
                End Site
                {
                  OFFSET 0 0 0
                }
              }
            }
          }
        }
      }
    }
  }
}
MOTION
Frames:	15
Frame Time:	0.0416667
-269.21 94.4761 -273.334 85.5676 -46.454 86.9587 -173.92 11.7231 89.0627 -22.8334 21.9986 -0.840061 54.2021 1.09306 23.27 59.2806 26.886 -16.0277 178.898 17.8131 91.7024 -35.2763 1.25842 -1.37062 59.8013 -1.88884 -1.08707 58.7011 0.391377 -7.25425 -0.0513997 7.15941 -89.9551 12.5551 -0.0807837 0.0990718 0.884123 -0.0763189 0.102521 -21.651 -0.106816 0.0702123 -1.63838 -0.106814 0.0702116 83.1483 -50.868 -110.907 29.5564 -7.05923 13.7093 -8.74104 -25.1761 -60.6221 -13.5417 -4.01724 32.1698 -99.9726 -40.3811 60.1532 -27.4848 6.72952 3.55861 4.38698 5.06727 -35.9899 11.3926 0.508963 0.593669 10.7934 -10.4541 3.69782 -0.653335 -11.1792 -2.02106 
-268.887 95.1756 -274.172 86.8638 -43.3153 88.43 -173.987 9.91062 89.2038 -19.8548 23.6446 -0.768742 53.7997 1.17957 21.7298 57.8669 25.5068 -16.7107 178.898 14.7292 91.743 -30.6031 4.29347 -1.25132 58.4196 -1.33808 -0.628406 54.2689 2.45711 6.77102 -0.424726 7.11833 -90.041 12.6374 -0.863139 0.0191613 0.966725 -0.861447 0.0571258 -21.5707 -0.828977 -0.241152 -1.55804 -0.828989 -0.241158 83.328 -51.5301 -110.416 27.6491 -5.13189 11.8831 -22.4708 -31.219 -66.0063 2.79502 0.655259 16.5098 -100.846 -41.411 59.2347 -27.0544 6.74578 3.97478 3.01995 3.22067 -34.304 8.95256 0.337951 -0.0615369 10.0967 -9.53639 4.3925 -0.821228 -10.4365 -2.26446 
-268.677 95.1385 -274.365 85.9583 -42.3735 87.0966 -173.763 9.99661 88.4677 -18.569 23.6083 -1.44089 54.4688 1.9971 21.4722 55.9735 23.3336 -18.8382 179.012 8.25622 91.3676 -18.8894 7.64431 -1.20039 69.8762 -4.47514 -2.38767 35.6903 0.508839 17.1573 -0.434712 6.89424 -89.9396 13.0869 -0.833832 0.222648 1.41619 -0.823223 0.259131 -21.1211 -0.862198 -0.0382614 -1.10849 -0.862207 -0.038269 83.1548 -51.473 -110.691 28.7822 -4.91408 10.8302 -14.766 -22.4774 -60.921 -4.65111 -0.947255 18.6523 -101.404 -42.0404 58.6495 -27.0546 7.44444 3.2658 2.2739 4.21692 -29.9216 8.03285 0.223698 -0.91041 9.54313 -9.20074 4.46531 -1.49843 -10.0815 -1.99644 
-268.373 95.3714 -274.894 85.8594 -45.133 87.7389 -172.758 8.76924 89.1706 -16.4464 20.2924 -2.00526 56.0317 3.20016 19.9 56.6806 22.2959 -24.3416 178.976 5.57505 91.4442 -13.5293 5.55937 -0.979701 68.5108 -3.0968 -1.63115 32.0459 -0.428867 18.347 -0.0305223 6.82787 -90.0191 13.2182 -0.0697213 -0.0294575 1.54725 -0.0709309 -0.026374 -20.9878 -0.0576371 -0.0490512 -0.975178 -0.0576334 -0.0490529 83.7174 -49.9518 -110.371 30.0215 -6.49002 8.52569 -6.73323 -16.1547 -54.7895 -7.76419 -1.41803 17.3326 -101.428 -43.1914 59.1269 -28.2364 7.0741 3.1093 2.85991 6.31403 -27.7871 7.33135 0.381962 1.19142 10.0554 -8.36847 5.08977 -2.08862 -9.42241 -2.24984 
-268.082 95.3173 -275.546 84.8666 -47.5473 87.3643 -172.015 8.61787 89.1352 -15.2918 17.771 -2.65132 57.7485 5.1776 20.7294 52.3684 19.0142 -25.1956 178.781 5.6846 91.0497 -11.899 2.82228 -0.796219 67.6888 -2.67165 -1.42328 31.3829 -0.623117 19.2899 0.282297 6.77278 -90.0909 13.329 0.516256 -0.247264 1.65811 0.504856 -0.269737 -20.8778 0.566686 -0.0806819 -0.865196 0.566703 -0.0806729 84.3854 -48.7856 -109.755 30.0125 -7.5077 6.36703 -7.75732 -16.5208 -51.5968 -6.04228 -0.948161 13.7068 -101.41 -43.652 59.3583 -30.9216 7.19127 4.45077 2.54464 5.53221 -27.9668 9.21278 0.391464 0.378582 11.9929 -6.53997 4.75236 -2.94389 -7.5339 -0.0130958 
-267.795 95.2213 -276.277 84.9627 -47.7435 86.9181 -172.027 7.85169 88.1697 -14.0889 16.0747 -2.92227 59.4777 7.45293 20.9648 48.7677 16.3555 -25.9037 178.905 6.96656 90.5451 -14.0021 1.88873 -1.38973 69.2786 -3.19135 -1.67643 30.2575 -0.785463 17.4527 0.246022 6.82748 -90.0579 13.2194 0.460375 -0.173386 1.54849 0.452312 -0.193481 -20.9873 0.491212 -0.0269942 -0.974667 0.491182 -0.02701 83.862 -49.4364 -110.329 28.5046 -7.87164 6.08796 -9.18516 -14.6043 -52.4201 -3.88224 -0.573952 11.7554 -101.477 -43.8205 59.3291 -33.012 9.15617 5.63635 3.2441 9.24907 -28.9214 10.419 0.838583 3.85701 13.6904 -3.21558 5.11871 -4.63877 -4.45923 -0.484264 
-267.042 94.9004 -276.799 83.617 -46.1149 85.4468 -172.723 7.50263 86.78 -11.6533 17.6619 -3.1037 58.8471 9.62527 24.7741 49.5589 16.9074 -25.8821 178.453 9.41302 89.5036 -17.5192 2.3647 -1.3702 71.4724 -3.70335 -1.88512 29.5668 -0.826466 15.5426 0.132261 6.81688 -90.0502 13.2403 0.238289 -0.130321 1.56935 0.232321 -0.140679 -20.9659 0.266451 -0.0526704 -0.953296 0.266439 -0.0526758 84.3622 -49.0083 -109.716 29.0385 -5.92675 6.46516 -12.186 -12.2073 -53.0722 -1.49655 -0.267151 12.5026 -102.399 -43.847 57.9376 -33.7351 11.1496 5.33269 1.58141 8.69584 -27.3624 8.86561 0.515437 1.8457 14.6189 -1.16658 4.79226 -4.56103 -2.40653 -0.0802869 
-266.687 94.4112 -277.129 85.3989 -45.587 87.4837 -172.062 7.21187 87.3428 -13.8024 18.4969 -3.44963 60.7463 13.2401 28.0654 49.554 16.4336 -28.3783 -179.977 11.4216 90.9352 -23.5179 6.2446 -2.85067 70.8446 -3.88116 -1.99455 35.1974 0.29791 14.6814 0.135527 7.01114 -90.0845 12.8518 0.228639 -0.196739 1.18081 0.219769 -0.206621 -21.3544 0.27722 -0.118921 -1.34179 0.277212 -0.118926 83.9105 -49.6598 -110.18 28.3531 -6.69092 7.40837 -11.2812 -11.3948 -49.788 -2.13874 -0.323277 9.29502 -101.744 -43.705 58.8718 -33.656 10.852 5.11807 2.58253 9.8639 -28.9337 11.6229 1.07064 4.99062 14.056 -0.48555 2.38763 -3.26177 -1.05257 1.45228 
-266.057 93.776 -277.158 86.2199 -45.4134 88.0732 -171.761 7.12285 87.0986 -15.8723 18.0299 -3.5949 63.5204 16.8502 28.904 48.8274 16.6631 -24.4495 -179.242 16.6827 91.538 -33.7328 8.69987 -3.37159 69.622 -4.37823 -2.30083 41.1353 1.30958 11.9433 0.128002 7.13601 -90.0152 12.6019 0.247008 -0.0592672 0.931026 0.244191 -0.0700872 -21.6043 0.253413 0.0177176 -1.59167 0.253415 0.0177118 83.2696 -50.6263 -110.81 28.1074 -7.25748 8.91652 -11.9734 -13.2843 -45.5132 -3.95404 -0.432844 4.27036 -101.885 -43.492 58.5621 -32.3471 10.642 5.2948 3.0757 8.46889 -31.9068 12.5481 1.22078 5.61918 12.7584 -0.263622 0.468361 -1.79296 -0.275711 2.28075 
-264.721 93.5974 -276.931 87.5533 -43.2515 89.8308 -172.17 5.38101 87.3973 -15.6499 19.3094 -2.89121 63.8855 18.571 29.7835 51.2603 18.8773 -22.2508 179.298 21.1114 92.2375 -40.6507 10.4123 -1.88964 68.9529 -3.87875 -2.05424 43.1238 1.68808 12.7491 -0.170433 7.28995 -90.082 12.2947 -0.377648 -0.121522 0.623793 -0.382636 -0.104782 -21.9116 -0.323671 -0.229397 -1.89896 -0.323662 -0.2294 83.0335 -51.0938 -111 28.5205 -6.80356 10.3321 -10.0046 -15.0276 -40.4986 -6.66698 -0.575098 3.34677 -102.011 -43.1274 58.2056 -30.8539 10.3904 5.38825 3.22849 6.3792 -35.2835 12.4763 1.09495 4.67807 11.0198 1.14717 0.236401 -1.50014 1.11614 1.11731 
-262.979 93.5318 -276.264 86.5449 -41.6065 89.314 -172.682 4.0484 87.0417 -13.5193 20.2369 -2.54243 65.0959 19.7059 28.0578 44.3187 14.4332 -17.1482 178.917 25.4075 92.3208 -39.0392 10.5814 -0.771931 68.653 -3.56142 -1.89827 44.7363 1.86595 11.3171 -0.384244 7.25047 -90.1683 12.3724 -0.843334 -0.241109 0.70169 -0.853126 -0.203758 -21.8351 -0.731883 -0.483423 -1.82249 -0.73189 -0.483435 83.2209 -51.9517 -110.432 27.9485 -6.42897 12.3857 -10.411 -14.5923 -39.854 -7.11717 -0.594359 2.79941 -102.847 -43.1447 56.9372 -29.3648 9.40812 4.69104 3.86459 5.03771 -38.5065 11.7575 0.863593 3.33742 9.23359 1.4793 -0.181826 -1.21513 1.60419 2.35531 
-261.104 93.3375 -275.163 85.3081 -41.9293 87.7998 -172.928 2.68178 86.1344 -12.1181 19.8919 -2.70016 64.9298 19.7944 28.0605 41.9698 12.5273 -17.0613 179.258 29.984 91.6303 -35.066 8.36219 -0.1263 68.4249 -2.93735 -1.56203 44.4516 1.73274 10.1837 -0.517316 7.16982 -90.0328 12.5348 -1.0432 0.0557905 0.864298 -1.03973 0.101651 -21.674 -1.01174 -0.260345 -1.66137 -1.01175 -0.260346 81.3919 -53.9109 -112.405 26.6171 -4.87151 14.4634 -11.5686 -10.5587 -41.9003 -1.12466 -0.195292 6.98205 -101.448 -41.9174 58.5232 -28.9493 8.98043 3.01154 4.81391 5.38675 -40.058 11.6167 0.789638 2.82742 7.76539 1.78229 -1.91815 -0.775514 2.33619 3.70403 
-259.173 92.9351 -273.132 84.8528 -42.6463 87.4414 -172.226 1.947 86.586 -13.5719 20.2455 -3.11694 64.9872 19.9821 29.2151 46.401 15.9246 -18.2792 179.902 32.2705 92.5068 -28.4549 10.9681 0.767911 68.9105 -2.9342 -1.55353 43.22 1.79989 14.0911 -0.529819 7.32302 -90.1336 12.2276 -1.1163 -0.141863 0.557155 -1.12146 -0.0925932 -21.9813 -1.02205 -0.470833 -1.96864 -1.02205 -0.470828 81.6597 -53.9159 -112.022 25.0527 -0.835519 14.5719 2.85163 0.57864 -39.0127 2.5882 0.44733 10.3763 -104.276 -42.1181 54.2687 -23.9565 13.7868 6.03286 2.69035 1.82639 -48.9793 12.6785 1.60507 8.41279 8.37308 2.03849 -1.44952 -0.0227695 2.54727 4.10622 
-256.3 92.4312 -270.559 85.4984 -41.9497 87.3367 -172.27 0.152406 86.4617 -15.9294 21.0921 -2.86312 64.0086 18.4482 29.3969 51.7345 19.5208 -21.0179 179.497 32.9096 92.379 -24.063 12.9635 1.87832 69.7861 -2.83206 -1.49684 44.6453 2.03443 13.6989 -0.719244 7.49412 -90.1524 11.8858 -1.50192 -0.1432 0.215671 -1.50677 -0.0769488 -22.3256 -1.38944 -0.588058 -2.31293 -1.38945 -0.588062 81.2589 -54.5205 -112.382 23.8196 -0.420041 14.7619 4.40575 2.10231 -38.2005 4.4982 0.715705 9.74787 -103.356 -42.0867 55.6586 -22.2191 16.4134 0.802287 -1.86631 -0.557177 -43.0477 19.3229 1.43949 3.48724 8.49897 2.1349 -1.89413 0.836969 2.83452 5.09786 
-252.506 91.6656 -266.986 85.1207 -40.5615 86.5133 -172.703 -0.749181 86.5077 -19.6522 22.6375 -2.11216 61.8661 15.0801 28.391 61.3938 25.8603 -23.761 179.386 33.3796 92.1806 -24.0817 12.8596 1.987 70.036 -2.7746 -1.46213 48.0132 2.66133 13.7367 -0.924146 7.5234 -90.1905 11.8266 -1.9273 -0.174722 0.157096 -1.93311 -0.0897109 -22.3882 -1.78566 -0.746064 -2.37551 -1.78566 -0.746065 81.2843 -54.9272 -112.205 23.2413 -1.02241 14.8385 3.69902 1.25311 -36.9741 3.96907 0.654826 10.5031 -103.771 -41.7647 54.8659 -23.536 12.9553 -1.12506 1.26252 3.36969 -38.7309 16.6058 1.22751 3.62984 9.19476 1.86251 -2.44492 0.639717 2.74318 5.93429 
